<svg id="ehR4yXZEHam1" xmlns="http://www.w3.org/2000/svg" xmlns:xlink="http://www.w3.org/1999/xlink" viewBox="0 0 159 52" shape-rendering="geometricPrecision" text-rendering="geometricPrecision"><defs><linearGradient id="ehR4yXZEHam2-fill" x1="25.6472" y1="5.00882" x2="25.6472" y2="46.3241" spreadMethod="pad" gradientUnits="userSpaceOnUse" gradientTransform="translate(0 0)"><stop id="ehR4yXZEHam2-fill-0" offset="0%" stop-color="#a4c1ff"/><stop id="ehR4yXZEHam2-fill-1" offset="100%" stop-color="#0e78f9"/></linearGradient><filter id="ehR4yXZEHam3-filter" x="-150%" width="400%" y="-150%" height="400%"><feGaussianBlur id="ehR4yXZEHam3-filter-drop-shadow-0-blur" in="SourceAlpha" stdDeviation="0.045569,0.045569"/><feOffset id="ehR4yXZEHam3-filter-drop-shadow-0-offset" dx="0" dy="0.123703" result="tmp"/><feFlood id="ehR4yXZEHam3-filter-drop-shadow-0-flood" flood-color="rgba(13,31,101,0.189957)"/><feComposite id="ehR4yXZEHam3-filter-drop-shadow-0-composite" operator="in" in2="tmp"/><feMerge id="ehR4yXZEHam3-filter-drop-shadow-0-merge" result="result"><feMergeNode id="ehR4yXZEHam3-filter-drop-shadow-0-merge-node-1"/><feMergeNode id="ehR4yXZEHam3-filter-drop-shadow-0-merge-node-2" in="SourceGraphic"/></feMerge><feGaussianBlur id="ehR4yXZEHam3-filter-drop-shadow-1-blur" in="result" stdDeviation="0.101348,0.101348"/><feOffset id="ehR4yXZEHam3-filter-drop-shadow-1-offset" dx="0" dy="0.242703" result="tmp"/><feFlood id="ehR4yXZEHam3-filter-drop-shadow-1-flood" flood-color="rgba(13,31,101,0.368551)"/><feComposite id="ehR4yXZEHam3-filter-drop-shadow-1-composite" operator="in" in2="tmp"/><feMerge id="ehR4yXZEHam3-filter-drop-shadow-1-merge" result="result"><feMergeNode id="ehR4yXZEHam3-filter-drop-shadow-1-merge-node-1"/><feMergeNode id="ehR4yXZEHam3-filter-drop-shadow-1-merge-node-2" in="result"/></feMerge><feGaussianBlur id="ehR4yXZEHam3-filter-drop-shadow-2-blur" in="result" stdDeviation="0.173572,0.173572"/><feOffset id="ehR4yXZEHam3-filter-drop-shadow-2-offset" dx="0" dy="0.373252" result="tmp"/><feFlood id="ehR4yXZEHam3-filter-drop-shadow-2-flood" flood-color="rgba(13,31,101,0.3)"/><feComposite id="ehR4yXZEHam3-filter-drop-shadow-2-composite" operator="in" in2="tmp"/><feMerge id="ehR4yXZEHam3-filter-drop-shadow-2-merge" result="result"><feMergeNode id="ehR4yXZEHam3-filter-drop-shadow-2-merge-node-1"/><feMergeNode id="ehR4yXZEHam3-filter-drop-shadow-2-merge-node-2" in="result"/></feMerge><feGaussianBlur id="ehR4yXZEHam3-filter-drop-shadow-3-blur" in="result" stdDeviation="0.551221,0.551221"/><feOffset id="ehR4yXZEHam3-filter-drop-shadow-3-offset" dx="0" dy="0.547679" result="tmp"/><feFlood id="ehR4yXZEHam3-filter-drop-shadow-3-flood" flood-color="rgba(13,31,101,0.3)"/><feComposite id="ehR4yXZEHam3-filter-drop-shadow-3-composite" operator="in" in2="tmp"/><feMerge id="ehR4yXZEHam3-filter-drop-shadow-3-merge" result="result"><feMergeNode id="ehR4yXZEHam3-filter-drop-shadow-3-merge-node-1"/><feMergeNode id="ehR4yXZEHam3-filter-drop-shadow-3-merge-node-2" in="result"/></feMerge><feGaussianBlur id="ehR4yXZEHam3-filter-drop-shadow-4-blur" in="result" stdDeviation="1.0248,1.0248"/><feOffset id="ehR4yXZEHam3-filter-drop-shadow-4-offset" dx="0" dy="0.852209" result="tmp"/><feFlood id="ehR4yXZEHam3-filter-drop-shadow-4-flood" flood-color="rgba(13,31,101,0.29)"/><feComposite id="ehR4yXZEHam3-filter-drop-shadow-4-composite" operator="in" in2="tmp"/><feMerge id="ehR4yXZEHam3-filter-drop-shadow-4-merge" result="result"><feMergeNode id="ehR4yXZEHam3-filter-drop-shadow-4-merge-node-1"/><feMergeNode id="ehR4yXZEHam3-filter-drop-shadow-4-merge-node-2" in="result"/></feMerge><feGaussianBlur id="ehR4yXZEHam3-filter-drop-shadow-5-blur" in="result" stdDeviation="1.80318,1.80318"/><feOffset id="ehR4yXZEHam3-filter-drop-shadow-5-offset" dx="0" dy="2.25397" result="tmp"/><feFlood id="ehR4yXZEHam3-filter-drop-shadow-5-flood" flood-color="rgba(13,31,101,0.45)"/><feComposite id="ehR4yXZEHam3-filter-drop-shadow-5-composite" operator="in" in2="tmp"/><feMerge id="ehR4yXZEHam3-filter-drop-shadow-5-merge" result="result"><feMergeNode id="ehR4yXZEHam3-filter-drop-shadow-5-merge-node-1"/><feMergeNode id="ehR4yXZEHam3-filter-drop-shadow-5-merge-node-2" in="result"/></feMerge></filter><linearGradient id="ehR4yXZEHam4-fill" x1="21.7383" y1="17.8314" x2="21.7383" y2="33.4088" spreadMethod="pad" gradientUnits="userSpaceOnUse" gradientTransform="translate(0 0)"><stop id="ehR4yXZEHam4-fill-0" offset="0%" stop-color="#fff"/><stop id="ehR4yXZEHam4-fill-1" offset="100%" stop-color="#c5d4f7"/></linearGradient><linearGradient id="ehR4yXZEHam5-stroke" x1="21.7383" y1="17.8314" x2="21.7383" y2="33.4088" spreadMethod="pad" gradientUnits="userSpaceOnUse" gradientTransform="translate(0 0)"><stop id="ehR4yXZEHam5-stroke-0" offset="0%" stop-color="#fff"/><stop id="ehR4yXZEHam5-stroke-1" offset="100%" stop-color="#637aca"/></linearGradient><filter id="ehR4yXZEHam6-filter" x="-150%" width="400%" y="-150%" height="400%"><feGaussianBlur id="ehR4yXZEHam6-filter-drop-shadow-0-blur" in="SourceAlpha" stdDeviation="0.045569,0.045569"/><feOffset id="ehR4yXZEHam6-filter-drop-shadow-0-offset" dx="0" dy="0.123703" result="tmp"/><feFlood id="ehR4yXZEHam6-filter-drop-shadow-0-flood" flood-color="rgba(13,31,101,0.189957)"/><feComposite id="ehR4yXZEHam6-filter-drop-shadow-0-composite" operator="in" in2="tmp"/><feMerge id="ehR4yXZEHam6-filter-drop-shadow-0-merge" result="result"><feMergeNode id="ehR4yXZEHam6-filter-drop-shadow-0-merge-node-1"/><feMergeNode id="ehR4yXZEHam6-filter-drop-shadow-0-merge-node-2" in="SourceGraphic"/></feMerge><feGaussianBlur id="ehR4yXZEHam6-filter-drop-shadow-1-blur" in="result" stdDeviation="0.101348,0.101348"/><feOffset id="ehR4yXZEHam6-filter-drop-shadow-1-offset" dx="0" dy="0.242703" result="tmp"/><feFlood id="ehR4yXZEHam6-filter-drop-shadow-1-flood" flood-color="rgba(13,31,101,0.368551)"/><feComposite id="ehR4yXZEHam6-filter-drop-shadow-1-composite" operator="in" in2="tmp"/><feMerge id="ehR4yXZEHam6-filter-drop-shadow-1-merge" result="result"><feMergeNode id="ehR4yXZEHam6-filter-drop-shadow-1-merge-node-1"/><feMergeNode id="ehR4yXZEHam6-filter-drop-shadow-1-merge-node-2" in="result"/></feMerge><feGaussianBlur id="ehR4yXZEHam6-filter-drop-shadow-2-blur" in="result" stdDeviation="0.173572,0.173572"/><feOffset id="ehR4yXZEHam6-filter-drop-shadow-2-offset" dx="0" dy="0.373252" result="tmp"/><feFlood id="ehR4yXZEHam6-filter-drop-shadow-2-flood" flood-color="rgba(13,31,101,0.3)"/><feComposite id="ehR4yXZEHam6-filter-drop-shadow-2-composite" operator="in" in2="tmp"/><feMerge id="ehR4yXZEHam6-filter-drop-shadow-2-merge" result="result"><feMergeNode id="ehR4yXZEHam6-filter-drop-shadow-2-merge-node-1"/><feMergeNode id="ehR4yXZEHam6-filter-drop-shadow-2-merge-node-2" in="result"/></feMerge><feGaussianBlur id="ehR4yXZEHam6-filter-drop-shadow-3-blur" in="result" stdDeviation="0.551221,0.551221"/><feOffset id="ehR4yXZEHam6-filter-drop-shadow-3-offset" dx="0" dy="0.547679" result="tmp"/><feFlood id="ehR4yXZEHam6-filter-drop-shadow-3-flood" flood-color="rgba(13,31,101,0.3)"/><feComposite id="ehR4yXZEHam6-filter-drop-shadow-3-composite" operator="in" in2="tmp"/><feMerge id="ehR4yXZEHam6-filter-drop-shadow-3-merge" result="result"><feMergeNode id="ehR4yXZEHam6-filter-drop-shadow-3-merge-node-1"/><feMergeNode id="ehR4yXZEHam6-filter-drop-shadow-3-merge-node-2" in="result"/></feMerge><feGaussianBlur id="ehR4yXZEHam6-filter-drop-shadow-4-blur" in="result" stdDeviation="1.0248,1.0248"/><feOffset id="ehR4yXZEHam6-filter-drop-shadow-4-offset" dx="0" dy="0.852209" result="tmp"/><feFlood id="ehR4yXZEHam6-filter-drop-shadow-4-flood" flood-color="rgba(13,31,101,0.29)"/><feComposite id="ehR4yXZEHam6-filter-drop-shadow-4-composite" operator="in" in2="tmp"/><feMerge id="ehR4yXZEHam6-filter-drop-shadow-4-merge" result="result"><feMergeNode id="ehR4yXZEHam6-filter-drop-shadow-4-merge-node-1"/><feMergeNode id="ehR4yXZEHam6-filter-drop-shadow-4-merge-node-2" in="result"/></feMerge><feGaussianBlur id="ehR4yXZEHam6-filter-drop-shadow-5-blur" in="result" stdDeviation="1.80318,1.80318"/><feOffset id="ehR4yXZEHam6-filter-drop-shadow-5-offset" dx="0" dy="2.25397" result="tmp"/><feFlood id="ehR4yXZEHam6-filter-drop-shadow-5-flood" flood-color="rgba(13,31,101,0.45)"/><feComposite id="ehR4yXZEHam6-filter-drop-shadow-5-composite" operator="in" in2="tmp"/><feMerge id="ehR4yXZEHam6-filter-drop-shadow-5-merge" result="result"><feMergeNode id="ehR4yXZEHam6-filter-drop-shadow-5-merge-node-1"/><feMergeNode id="ehR4yXZEHam6-filter-drop-shadow-5-merge-node-2" in="result"/></feMerge></filter><linearGradient id="ehR4yXZEHam7-fill" x1="36.2889" y1="17.9817" x2="36.2889" y2="33.2967" spreadMethod="pad" gradientUnits="userSpaceOnUse" gradientTransform="translate(0 0)"><stop id="ehR4yXZEHam7-fill-0" offset="0%" stop-color="#fff"/><stop id="ehR4yXZEHam7-fill-1" offset="100%" stop-color="#c5d4f7"/></linearGradient><linearGradient id="ehR4yXZEHam8-stroke" x1="36.2889" y1="17.9817" x2="36.2889" y2="33.2967" spreadMethod="pad" gradientUnits="userSpaceOnUse" gradientTransform="translate(0 0)"><stop id="ehR4yXZEHam8-stroke-0" offset="0%" stop-color="#fff"/><stop id="ehR4yXZEHam8-stroke-1" offset="100%" stop-color="#637aca"/></linearGradient></defs><path d="M19.6723,5.01949c.7653.00532,1.5302.01065,2.2604.01065h7.4291c.7301,0,1.495-.00533,2.2603-.01065c2.0604-.01434,4.1238-.0287,5.5204.06073c5.0839.32558,8.5901,3.406,9.0409,8.64018.1069,1.8809.1043,4.1467.1013,6.8188v.0008c-.0006.4586-.0011.9292-.0011,1.4119v7.4291c0,.4827.0005.9533.0011,1.4119.003,2.6725.0056,4.9386-.1013,6.8196-.4508,5.2342-3.957,8.3147-9.0409,8.6402-1.3966.0895-3.46.0751-5.5204.0608-.7653-.0054-1.5302-.0107-2.2603-.0107h-7.4291c-.7302,0-1.4951.0053-2.2604.0107-2.0603.0143-4.1237.0287-5.5203-.0608-5.08395-.3255-8.59012-3.406-9.04092-8.6402-.10688-1.8809-.10429-4.1467-.10125-6.8188v-.0008c.00053-.4586.00106-.9292.00106-1.4119v-7.4291c0-.4827-.00053-.9533-.00106-1.4119v-.0008c-.00304-2.6721-.00563-4.9379.10125-6.8188.4508-5.23418,3.95697-8.3146,9.04092-8.64018c1.3966-.08943,3.46-.07507,5.5203-.06073Z" fill="url(#ehR4yXZEHam2-fill)"/><g filter="url(#ehR4yXZEHam3-filter)"><path d="M11.7206,19.7347c0-1.0511.8522-1.9033,1.9034-1.9033h13.3235c2.6556,0,4.8084,2.1528,4.8084,4.8085v8.8656c0,1.0512-.8521,1.9033-1.9033,1.9033h-13.3235c-2.6556,0-4.8085-2.1528-4.8085-4.8084v-8.8657Z" fill="url(#ehR4yXZEHam4-fill)"/><path d="M13.624,18.0568h13.3235c2.5311,0,4.583,2.0519,4.583,4.5831v8.8656c0,.9267-.7512,1.6779-1.6779,1.6779h-13.3235c-2.5312,0-4.5831-2.0519-4.5831-4.583v-8.8657c0-.9267.7513-1.6779,1.678-1.6779Z" fill="none" stroke="url(#ehR4yXZEHam5-stroke)" stroke-width="0.450794"/></g><g filter="url(#ehR4yXZEHam6-filter)"><path d="M32.958,23.3465c0-.6479.2788-1.2645.7652-1.6924l3.8172-3.358c.809-.7116,2.0793-.1372,2.0793.9402v12.8058c0,1.0673-1.2496,1.6453-2.0629.9543l-3.5041-2.9771c-.6944-.59-1.0947-1.4553-1.0947-2.3666v-4.3062Z" fill="url(#ehR4yXZEHam7-fill)"/><path d="M33.8721,21.8234l3.8172-3.358c.6634-.5836,1.705-.1126,1.705.7709v12.8058c0,.8752-1.0247,1.3492-1.6916.7825l-3.504-2.9771c-.6441-.5472-1.0153-1.3497-1.0153-2.1948v-4.3062c0-.5831.2509-1.138.6887-1.5231Z" fill="none" stroke="url(#ehR4yXZEHam8-stroke)" stroke-width="0.450794"/></g></svg>
